<mxfile host="app.diagrams.net" modified="2023-12-29T16:23:25.612Z" agent="Mozilla/5.0 (Windows NT 10.0; Win64; x64) AppleWebKit/537.36 (KHTML, like Gecko) Chrome/120.0.0.0 Safari/537.36" version="22.1.15" etag="VD19FLn245I16bkWsxaM" type="github">
  <diagram name="Page-1" id="RnJbG-5oohqIYgiVYqrD">
    <mxGraphModel>
      <root>
        <mxCell id="0" />
        <mxCell id="1" parent="0" />
      </root>
    </mxGraphModel>
  </diagram>
</mxfile>
